<svg id="Layer_1" data-name="Layer 1" xmlns="http://www.w3.org/2000/svg" viewBox="0 0 128.01 138.71"><defs><style>.cls-1{fill:#24388c;}</style></defs><path class="cls-1" d="M119.24,30.34l-34.66-20a29.44,29.44,0,0,0-29.34,0l-34.67,20A29.34,29.34,0,0,0,5.9,55.75v40a29.41,29.41,0,0,0,14.67,25.41l34.67,20a29.48,29.48,0,0,0,29.34,0l34.66-20a29.34,29.34,0,0,0,14.67-25.41v-40A29.43,29.43,0,0,0,119.24,30.34ZM61,131.16l-34.67-20a17.78,17.78,0,0,1-8.86-15.36v-40a17.79,17.79,0,0,1,8.86-15.36L61,20.38a17.76,17.76,0,0,1,17.73,0l10.51,6.07-24,15.15a15.94,15.94,0,1,0-1.58,26.68L69,72.59a15.88,15.88,0,0,0,4,16.2l-2.58,6h-.51a15.94,15.94,0,0,0-5.74,30.81l0,7A17.18,17.18,0,0,1,61,131.16Zm-1-77.47a4.33,4.33,0,1,1-3.53-3.54A4.34,4.34,0,0,1,60.08,53.69ZM70.64,115a4.34,4.34,0,1,1,3.54-3.53A4.34,4.34,0,0,1,70.64,115Zm51.67-19.24a17.79,17.79,0,0,1-8.87,15.36l-34.67,20a17.51,17.51,0,0,1-3,1.35l0-6.94A15.92,15.92,0,0,0,81.08,99.4l2.58-6,.51,0a15.94,15.94,0,1,0-7.87-29.8L71,59.27a15.82,15.82,0,0,0,.47-7.86L100.64,33l12.8,7.39a17.8,17.8,0,0,1,8.87,15.36ZM79.9,78.17a4.34,4.34,0,1,1,3.54,3.54A4.34,4.34,0,0,1,79.9,78.17Z" transform="translate(-5.9 -6.41)"/></svg>