<svg id="Layer_1" data-name="Layer 1" xmlns="http://www.w3.org/2000/svg" viewBox="0 0 505.77 138.71"><defs><style>.cls-1{fill:#24388c;}</style></defs><path class="cls-1" d="M131.49,40.11l-34.66-20a29.44,29.44,0,0,0-29.34,0l-34.67,20A29.34,29.34,0,0,0,18.15,65.52v40A29.43,29.43,0,0,0,32.82,131l34.67,20a29.41,29.41,0,0,0,29.34,0l34.66-20a29.35,29.35,0,0,0,14.67-25.41v-40A29.41,29.41,0,0,0,131.49,40.11ZM73.29,140.92l-34.67-20a17.79,17.79,0,0,1-8.86-15.36v-40a17.78,17.78,0,0,1,8.86-15.36l34.67-20a17.83,17.83,0,0,1,17.73,0l10.51,6.07-24,15.15a15.94,15.94,0,1,0-1.58,26.69l5.31,4.3a15.9,15.9,0,0,0,4,16.21l-2.58,6-.51,0a15.94,15.94,0,0,0-5.74,30.81l0,7A17.22,17.22,0,0,1,73.29,140.92Zm-1-77.47a4.34,4.34,0,1,1-3.54-3.54A4.35,4.35,0,0,1,72.34,63.45Zm10.55,61.34a4.34,4.34,0,1,1,3.54-3.54A4.34,4.34,0,0,1,82.89,124.79Zm51.67-19.24a17.8,17.8,0,0,1-8.87,15.36L91,140.92a17.56,17.56,0,0,1-3,1.36l0-6.95a15.92,15.92,0,0,0,5.31-26.17l2.58-6h.51a15.94,15.94,0,1,0-7.86-29.79L83.25,69A16.19,16.19,0,0,0,84,64.19a15.68,15.68,0,0,0-.29-3l29.18-18.41,12.8,7.39a17.79,17.79,0,0,1,8.87,15.36ZM92.15,87.94a4.34,4.34,0,1,1,3.54,3.54A4.34,4.34,0,0,1,92.15,87.94ZM217.86,116.6H204.42v-9.07h-.23a18.31,18.31,0,0,1-6.54,7.48,18.82,18.82,0,0,1-11,3.24,21.36,21.36,0,0,1-9.49-1.94,18.7,18.7,0,0,1-6.48-5.13,20.73,20.73,0,0,1-3.72-7.31,30.89,30.89,0,0,1-1.17-8.48V60h14.14V91.38a41.25,41.25,0,0,0,.35,5.19,14.16,14.16,0,0,0,1.53,4.89,10.24,10.24,0,0,0,3.24,3.59,9.51,9.51,0,0,0,5.49,1.42,12.12,12.12,0,0,0,5.83-1.36,12.3,12.3,0,0,0,4.12-3.47,15.49,15.49,0,0,0,2.42-4.9,19.46,19.46,0,0,0,.83-5.59V60h14.14ZM246,27.5V67.22h.36a23.59,23.59,0,0,1,2.71-3A20.39,20.39,0,0,1,253,61.45a24.25,24.25,0,0,1,5.36-2.18,25,25,0,0,1,7-.89,26.54,26.54,0,0,1,11.08,2.3A26.22,26.22,0,0,1,285.15,67a28.47,28.47,0,0,1,5.66,9.42,33.35,33.35,0,0,1,2,11.67,34.74,34.74,0,0,1-1.94,11.73,28.76,28.76,0,0,1-5.54,9.54,26.55,26.55,0,0,1-8.72,6.49A26.94,26.94,0,0,1,265,118.25a25.05,25.05,0,0,1-11.26-2.59,19.32,19.32,0,0,1-8.19-7.54h-.23v8.48H231.88V27.5Zm32.42,60.58a22,22,0,0,0-1-6.54,18.43,18.43,0,0,0-3-5.83,15.16,15.16,0,0,0-5.07-4.19,15.4,15.4,0,0,0-7.19-1.59,14.42,14.42,0,0,0-7,1.65A18,18,0,0,0,250,75.82a18.28,18.28,0,0,0-3.3,5.9,20.34,20.34,0,0,0-1.12,6.6,19.81,19.81,0,0,0,1.12,6.54,18.38,18.38,0,0,0,3.3,5.83,17,17,0,0,0,5.25,4.19,16.24,16.24,0,0,0,14.14-.06,15.82,15.82,0,0,0,5.07-4.25,18.22,18.22,0,0,0,3-5.89A22.56,22.56,0,0,0,278.44,88.08Zm23.92-47.26a8.14,8.14,0,0,1,2.53-6,8.71,8.71,0,0,1,6.43-2.54,9.36,9.36,0,0,1,6.54,2.42,8.28,8.28,0,0,1,0,12.14,9.36,9.36,0,0,1-6.54,2.42,8.71,8.71,0,0,1-6.43-2.54A8.14,8.14,0,0,1,302.36,40.82Zm2,19.21h14.15V116.6H304.36Zm85.21,84.86H375.43V109.06h-.24a18.71,18.71,0,0,1-7.72,6.72,24.52,24.52,0,0,1-11,2.47,26.86,26.86,0,0,1-11.6-2.41,26.59,26.59,0,0,1-8.73-6.49,28.74,28.74,0,0,1-5.53-9.54,34.75,34.75,0,0,1-1.95-11.73,33.58,33.58,0,0,1,2-11.67A28.47,28.47,0,0,1,336.3,67a26.37,26.37,0,0,1,19.8-8.61,25.69,25.69,0,0,1,7,.89,26.59,26.59,0,0,1,5.6,2.23,18.53,18.53,0,0,1,4.19,3.07,21.17,21.17,0,0,1,2.77,3.36H376V60h13.55ZM343,88.08a22.54,22.54,0,0,0,1,6.6,18,18,0,0,0,3,5.89,15.67,15.67,0,0,0,5.06,4.25,16.26,16.26,0,0,0,14.15.06,17,17,0,0,0,5.24-4.19,18.38,18.38,0,0,0,3.3-5.83,19.81,19.81,0,0,0,1.12-6.54,20.34,20.34,0,0,0-1.12-6.6,18.28,18.28,0,0,0-3.3-5.9,17.91,17.91,0,0,0-5.24-4.24,14.46,14.46,0,0,0-7-1.65,15.43,15.43,0,0,0-7.19,1.59A15,15,0,0,0,347,75.71a18.25,18.25,0,0,0-3,5.83A22,22,0,0,0,343,88.08ZM404,108.35a8.75,8.75,0,0,1,2.77-6.48,9.16,9.16,0,0,1,6.66-2.71,9.51,9.51,0,0,1,6.6,2.59,8.33,8.33,0,0,1,2.83,6.37A8.78,8.78,0,0,1,420,114.6a9.18,9.18,0,0,1-6.66,2.71,9.36,9.36,0,0,1-3.6-.71,10.23,10.23,0,0,1-3-1.88,8.71,8.71,0,0,1-2.06-2.83A8.17,8.17,0,0,1,404,108.35Zm31.47-67.53a8.14,8.14,0,0,1,2.53-6,8.7,8.7,0,0,1,6.42-2.54,9.37,9.37,0,0,1,6.55,2.42,8.28,8.28,0,0,1,0,12.14,9.37,9.37,0,0,1-6.55,2.42A8.7,8.7,0,0,1,438,46.77,8.14,8.14,0,0,1,435.42,40.82Zm2,19.21h14.14V116.6H437.42Zm25,28.05a30,30,0,0,1,2.42-12.2,28.62,28.62,0,0,1,6.54-9.37,29,29,0,0,1,9.78-6,35.16,35.16,0,0,1,24.05,0,29,29,0,0,1,9.78,6,28.62,28.62,0,0,1,6.54,9.37,30,30,0,0,1,2.42,12.2,30.35,30.35,0,0,1-2.42,12.26,29.14,29.14,0,0,1-6.54,9.49,29.85,29.85,0,0,1-9.78,6.18,33.4,33.4,0,0,1-24.05,0,29.85,29.85,0,0,1-9.78-6.18,29.14,29.14,0,0,1-6.54-9.49A30.35,30.35,0,0,1,462.4,88.08Zm14.38,0a22.56,22.56,0,0,0,1,6.6,17.83,17.83,0,0,0,3,5.89,15.71,15.71,0,0,0,5.07,4.25,17,17,0,0,0,14.61,0,15.82,15.82,0,0,0,5.07-4.25,18,18,0,0,0,3-5.89,22.88,22.88,0,0,0,1-6.6,22.28,22.28,0,0,0-1-6.54,18.25,18.25,0,0,0-3-5.83,15.16,15.16,0,0,0-5.07-4.19,17.58,17.58,0,0,0-14.61,0,15.06,15.06,0,0,0-5.07,4.19,18,18,0,0,0-3,5.83A22,22,0,0,0,476.78,88.08Z" transform="translate(-18.15 -16.18)"/></svg>